<?xml version="1.0" encoding="utf-8"?>
<!-- Generator: Adobe Illustrator 22.0.0, SVG Export Plug-In . SVG Version: 6.00 Build 0)  -->
<svg version="1.1" id="Layer_1" xmlns="http://www.w3.org/2000/svg" xmlns:xlink="http://www.w3.org/1999/xlink" x="0px" y="0px"
	 viewBox="0 0 500 500" style="enable-background:new 0 0 500 500;" xml:space="preserve">
<style type="text/css">
	.st0{fill:none;stroke:#1C1D21;stroke-width:10;stroke-linecap:round;stroke-linejoin:round;stroke-miterlimit:10;}
	.st1{fill:#1C1D21;}
</style>
<path class="st0" d="M193.4,346.5c-40.9,0-79.4-15.9-108.4-44.9c-28.9-28.9-44.9-67.4-44.9-108.4c0-40.9,15.9-79.4,44.9-108.4
	C114,56,152.5,40.1,193.4,40.1S272.8,56,301.7,84.9c28.9,28.9,44.9,67.4,44.9,108.4c0,40.9-15.9,79.4-44.9,108.4
	C272.8,330.6,234.3,346.5,193.4,346.5z"/>
<path class="st0" d="M487.8,452.8L377.4,342.5c-18.5-18.5-23.9-46.7-13-70.5c32-69.5,19.3-154.5-37.9-211.8
	c-73.5-73.5-192.7-73.5-266.2,0c-73.5,73.5-73.8,191.8-0.5,265.6c57.1,57.6,142.1,70.5,211.7,38.7c23.9-10.9,52.1-6.1,70.7,12.5
	l110.6,110.6c9.6,9.6,25.3,9.6,34.9,0C497.4,478.1,497.4,462.4,487.8,452.8z"/>
<line class="st0" x1="426.4" y1="461.2" x2="445" y2="442.6"/>
<path class="st0" d="M173.1,41.4c6.7-0.9,13.4-1.3,20.3-1.3"/>
<path class="st0" d="M47.9,145c7.4-22.4,20-42.9,37.1-60c14.4-14.4,31.2-25.6,49.5-33.2"/>
<path class="st0" d="M92.3,250.3c15.4,26.3,44.1,44.1,76.9,44.1c32.9,0,61.6-17.7,76.9-44.1c-15.4-26.3-44.1-44.1-76.9-44.1
	C136.4,206.2,107.7,223.9,92.3,250.3z"/>
<line class="st0" x1="246.2" y1="250.3" x2="92.3" y2="250.3"/>
<polyline class="st0" points="163.1,206.2 207.3,250.3 163.1,294.4 "/>
<polyline class="st0" points="128.7,215.9 163.1,250.3 128.7,284.6 "/>
<path class="st0" d="M250.3,92.3c26.3,15.4,44.1,44.1,44.1,76.9c0,32.9-17.7,61.6-44.1,76.9c-26.3-15.4-44.1-44.1-44.1-76.9
	C206.3,136.3,224,107.6,250.3,92.3z"/>
<line class="st0" x1="250.3" y1="246.1" x2="250.3" y2="92.3"/>
<polyline class="st0" points="206.3,163.1 250.3,207.2 294.4,163.1 "/>
<polyline class="st0" points="216,128.7 250.3,163.1 284.7,128.7 "/>
</svg>
