<?xml version="1.0" encoding="utf-8"?>
<!-- Generator: Adobe Illustrator 22.0.0, SVG Export Plug-In . SVG Version: 6.00 Build 0)  -->
<svg version="1.1" id="Layer_1" xmlns="http://www.w3.org/2000/svg" xmlns:xlink="http://www.w3.org/1999/xlink" x="0px" y="0px"
	 viewBox="0 0 500 500" style="enable-background:new 0 0 500 500;" xml:space="preserve">
<style type="text/css">
	.st0{fill:none;stroke:#1C1D21;stroke-width:10;stroke-linecap:round;stroke-linejoin:round;stroke-miterlimit:10;}
	.st1{fill:#1C1D21;}
</style>
<path class="st0" d="M206.3,206.4c-3.9,1.5-7.6,3.1-11.3,4.9c-7.2,3.6-15.8,2-21.5-3.7l-13.5-13.5c-7.4-7.4-19.3-7.4-26.7,0
	L122,205.5c-7.4,7.4-7.4,19.3,0,26.7l13.5,13.5c5.7,5.7,7.2,14.3,3.7,21.5c-2.5,5-4.6,10.2-6.4,15.5c-2.5,7.6-9.8,12.5-17.8,12.5
	H95.9c-10.4,0-18.8,8.4-18.8,18.8v16.1c0,10.4,8.4,18.8,18.8,18.8H115c8,0,15.2,5,17.8,12.5c1.8,5.3,3.9,10.5,6.4,15.5
	c3.6,7.2,2,15.8-3.7,21.5L122,412c-7.4,7.4-7.4,19.3,0,26.7l11.4,11.4c7.4,7.4,19.3,7.4,26.7,0l13.5-13.5c5.7-5.7,14.3-7.2,21.5-3.7
	c5,2.5,10.2,4.6,15.5,6.4c7.6,2.5,12.5,9.8,12.5,17.8v19.1c0,10.4,8.4,18.8,18.8,18.8h16.1c10.4,0,18.8-8.4,18.8-18.8V457
	c0-8,5-15.2,12.5-17.8c5.3-1.8,10.5-3.9,15.5-6.4c7.2-3.6,15.8-2,21.5,3.7l13.5,13.5c7.4,7.4,19.3,7.4,26.7,0l11.4-11.4
	c7.4-7.4,7.4-19.3,0-26.7l-13.5-13.5c-5.7-5.7-7.2-14.3-3.7-21.5c2.5-5,4.6-10.2,6.4-15.5c2.5-7.6,9.8-12.5,17.8-12.5h19.1
	c10.4,0,18.8-8.4,18.8-18.8V314c0-10.4-8.4-18.8-18.8-18.8H385c-8,0-15.2-5-17.8-12.5c-1.8-5.3-3.9-10.5-6.4-15.5
	c-3.6-7.2-2-15.8,3.7-21.5l13.5-13.5c7.4-7.4,7.4-19.3,0-26.7l-11.4-11.4c-7.4-7.4-19.3-7.4-26.7,0l-13.5,13.5
	c-5.7,5.7-14.3,7.2-21.5,3.7c-3.7-1.8-7.5-3.5-11.4-5"/>
<path class="st0" d="M269,267.8c22.4,7.9,38.4,29.2,38.4,54.2c0,31.7-25.7,57.4-57.4,57.4s-57.4-25.7-57.4-57.4
	c0-24.7,15.6-45.8,37.5-53.9"/>
<path class="st0" d="M191,30.4c-0.5,0.5-0.9,1-1.4,1.5"/>
<path class="st0" d="M168,87.7c-0.1,10.3,1.7,20.8,5.7,31.1L250,317.4l76.4-198.5C346.5,66.4,310.6,8,254.5,5.1C253,5,251.5,5,250,5
	s-3,0-4.5,0.1c-15.3,0.8-29.1,5.7-40.6,13.5"/>
<path class="st0" d="M175.7,53.3c-1.7,3.8-3.2,7.7-4.3,11.7"/>
<circle class="st0" cx="250" cy="83.1" r="34.6"/>
</svg>
