<?xml version="1.0" encoding="utf-8"?>
<!-- Generator: Adobe Illustrator 22.0.0, SVG Export Plug-In . SVG Version: 6.00 Build 0)  -->
<svg version="1.1" id="Layer_1" xmlns="http://www.w3.org/2000/svg" xmlns:xlink="http://www.w3.org/1999/xlink" x="0px" y="0px"
	 viewBox="0 0 500 500" style="enable-background:new 0 0 500 500;" xml:space="preserve">
<style type="text/css">
	.st0{fill:none;stroke:#1C1D21;stroke-width:10;stroke-linecap:round;stroke-linejoin:round;stroke-miterlimit:10;}
	.st1{fill:#1C1D21;}
</style>
<path class="st0" d="M377.4,68.7l-19.2,19.2c-8,8-20.2,10.3-30.3,5.2c-7.1-3.5-14.5-6.6-22-9.1c-10.7-3.6-17.8-13.9-17.8-25.2
	l0-27.1c0-14.7-12-26.7-26.7-26.7l-22.8,0c-14.7,0-26.7,12-26.7,26.7l0,27.1c0,11.3-7.1,21.6-17.8,25.2c-7.5,2.5-14.8,5.5-22,9.1
	c-10.1,5-22.3,2.7-30.3-5.2l-19.2-19.2c-10.4-10.4-27.3-10.4-37.8,0L68.7,84.8c-10.4,10.4-10.4,27.3,0,37.8l19.2,19.2
	c8,8,10.3,20.2,5.2,30.3c-3.5,7.1-6.6,14.5-9.1,22c-3.6,10.7-13.8,17.8-25.2,17.8l-27.1,0C17,211.9,5,223.8,5,238.6l0,22.8
	c0,14.7,12,26.7,26.7,26.7h27.1c11.3,0,21.6,7.1,25.2,17.8c2.5,7.5,5.5,14.8,9.1,22c5,10.1,2.7,22.3-5.2,30.3l-19.2,19.2
	c-10.4,10.4-10.4,27.3,0,37.8l16.2,16.2c10.4,10.4,27.3,10.4,37.8,0l19.2-19.2c8-8,20.2-10.3,30.3-5.2c7.1,3.5,14.5,6.6,22,9.1
	c10.7,3.6,17.8,13.9,17.8,25.2v27.1c0,14.7,12,26.7,26.7,26.7l22.8,0c14.7,0,26.7-12,26.7-26.7l0-27.1c0-11.3,7.1-21.6,17.8-25.2
	c7.5-2.5,14.8-5.5,22-9.1c10.1-5,22.3-2.7,30.3,5.2l19.2,19.2c10.4,10.4,27.3,10.4,37.8,0l16.2-16.2c10.4-10.4,10.4-27.3,0-37.8
	l-19.2-19.2c-8-8-10.3-20.2-5.2-30.3c3.5-7.1,6.6-14.5,9.1-22c3.6-10.7,13.9-17.8,25.2-17.8l27.1,0c14.7,0,26.7-12,26.7-26.7l0-22.8
	c0-14.7-12-26.7-26.7-26.7h-27.1c-11.3,0-21.6-7.1-25.2-17.8c-2.5-7.5-5.5-14.8-9.1-22c-5-10.1-2.7-22.3,5.2-30.3l19.2-19.2
	c10.4-10.4,10.4-27.3,0-37.8l-16.2-16.2C404.7,58.3,387.8,58.3,377.4,68.7z"/>
<ellipse transform="matrix(0.7071 -0.7071 0.7071 0.7071 -103.5534 249.9999)" class="st0" cx="250" cy="250" rx="144.2" ry="144.2"/>
<path class="st0" d="M155.5,198.9c-22.1,40.7-15.9,92.7,18.6,127.1c42,42,110,42,152,0c42-42,42-110,0-152
	c-22.7-22.7-52.9-33.1-82.6-31.3c-6.3,0.4-12.6,1.3-18.8,2.8"/>
<path class="st0" d="M199.3,155.2c-9.1,4.9-17.6,11.1-25.3,18.8"/>
<line class="st0" x1="250" y1="275.2" x2="250" y2="301.6"/>
<line class="st0" x1="250" y1="169.6" x2="250" y2="224.8"/>
<path class="st0" d="M267.8,232.2c-9.8-9.8-25.8-9.8-35.6,0c-9.8,9.8-9.8,25.8,0,35.6c9.8,9.8,25.8,9.8,35.6,0
	C277.6,258,277.6,242,267.8,232.2z"/>
</svg>
